<svg width="14" height="18" viewBox="0 0 14 18" fill="none" xmlns="http://www.w3.org/2000/svg">
<path d="M7.18183 4.09091C7.9091 4.09091 8.9091 3.54546 9.45456 2.81818C10 2.18182 10.3636 1.27273 10.3636 0.363637C10.3636 0.272728 10.3636 0.0909091 10.3636 0C9.54547 0 8.54547 0.545455 7.9091 1.27273C7.45456 1.81818 7.00001 2.72727 7.00001 3.63636C7.00001 3.72727 7.00001 3.90909 7.00001 3.90909C7.00001 4.09091 7.09092 4.09091 7.18183 4.09091ZM4.54546 17.3636C5.54546 17.3636 6.00001 16.6364 7.36365 16.6364C8.63637 16.6364 9.00001 17.3636 10.0909 17.3636C11.1818 17.3636 12 16.2727 12.7273 15.2727C13.5455 14.0909 13.8182 12.9091 13.9091 12.8182C13.8182 12.8182 11.6364 11.9091 11.6364 9.36364C11.6364 7.18182 13.3636 6.18182 13.4546 6.09091C12.3636 4.45455 10.6364 4.36364 10.1818 4.36364C8.9091 4.36364 7.9091 5.18182 7.27274 5.18182C6.54546 5.18182 5.63637 4.45455 4.54546 4.45455C2.45456 4.45455 0.363647 6.27273 0.363647 9.63636C0.363647 11.7273 1.18183 13.9091 2.09092 15.3636C2.72728 16.3636 3.45456 17.3636 4.54546 17.3636Z" fill="white"/>
</svg>
